<svg width="35" height="35" viewBox="0 0 35 35" fill="none" xmlns="http://www.w3.org/2000/svg">
<path d="M21.5873 1.36255H17.4997V3.91728H20.3099V8.72868C20.3099 12.9547 16.8716 16.3929 12.6457 16.3929C8.41969 16.3929 4.98148 12.9547 4.98148 8.72875V3.91728H7.70656V1.36255H3.70412C2.99858 1.36255 2.42676 1.93437 2.42676 2.63991V8.72875C2.42676 14.3637 7.0108 18.9477 12.6457 18.9477C18.2807 18.9477 22.8647 14.3637 22.8647 8.72875V2.63991C22.8647 1.93437 22.2929 1.36255 21.5873 1.36255Z" fill="#1C1F1E"/>
<path d="M26.5687 20.0122V26.0584C26.5687 29.5801 23.7036 32.4453 20.1818 32.4453C16.6601 32.4453 13.795 29.5801 13.795 26.0584V17.7129H11.2402V26.0584C11.2402 30.9886 15.2512 35 20.1818 35C25.1121 35 29.1235 30.9886 29.1235 26.0584V20.0122H26.5687Z" fill="#1C1F1E"/>
<path d="M27.8468 11.7517C25.2401 11.7517 23.1201 13.8717 23.1201 16.478C23.1201 19.0839 25.2401 21.2043 27.8464 21.2043C30.4527 21.2043 32.5727 19.0839 32.5731 16.478C32.5731 13.8717 30.4527 11.7517 27.8468 11.7517ZM27.8464 18.6496C26.6487 18.6496 25.6744 17.6754 25.6744 16.4781C25.6744 15.2808 26.6486 14.3066 27.8464 14.3066C29.0437 14.3066 30.0179 15.2808 30.0179 16.4781C30.0179 17.6754 29.0437 18.6496 27.8464 18.6496Z" fill="#1C1F1E"/>
<path d="M7.66408 0C6.95854 0 6.38672 0.571826 6.38672 1.27736V4.00244C6.38672 4.70798 6.95854 5.2798 7.66408 5.2798C8.36962 5.2798 8.94145 4.70798 8.94145 4.00244V1.27736C8.94145 0.571826 8.36962 0 7.66408 0Z" fill="#1C1F1E"/>
<path d="M17.542 0C16.8365 0 16.2646 0.571826 16.2646 1.27736V4.00244C16.2646 4.70798 16.8365 5.2798 17.542 5.2798C18.2475 5.2798 18.8194 4.70798 18.8194 4.00244V1.27736C18.8194 0.571826 18.2475 0 17.542 0Z" fill="#1C1F1E"/>
</svg>
