<svg width="19" height="19" viewBox="0 0 19 19" fill="none" xmlns="http://www.w3.org/2000/svg">
<path d="M14.9167 17.855C11.0315 18.2696 7.13447 18.2696 3.24923 17.855C1.70001 17.6896 0.476352 16.466 0.311008 14.9166C-0.103669 11.0314 -0.103669 7.13447 0.311008 3.24923C0.476352 1.70001 1.70001 0.476352 3.24923 0.311008C7.13447 -0.103669 11.0314 -0.103669 14.9166 0.311008C16.466 0.476352 17.6896 1.70001 17.855 3.24923C18.2696 7.13447 18.2696 11.0314 17.855 14.9166C17.6896 16.466 16.4661 17.6896 14.9167 17.855Z" fill="url(#paint0_linear_309_2355)"/>
<path d="M16.8673 3.90622C16.7207 2.53149 15.6349 1.4456 14.2601 1.29882C10.8124 0.930991 7.3544 0.930991 3.90671 1.29882C2.53198 1.4456 1.44608 2.53149 1.29931 3.90622C0.931479 7.35392 0.931479 10.8119 1.29931 14.2594C1.44608 15.6343 2.53198 16.7202 3.90671 16.8668C7.3544 17.2348 10.8124 17.2348 14.2599 16.8668C15.6348 16.7202 16.7207 15.6343 16.8673 14.2594C17.2353 10.8119 17.2353 7.35392 16.8673 3.90622Z" fill="url(#paint1_linear_309_2355)"/>
<path d="M0.272461 14.54C0.284935 14.6656 0.297824 14.7912 0.311268 14.9167C0.476612 16.466 1.70027 17.6896 3.24963 17.855C7.13487 18.2696 11.0318 18.2696 14.917 17.855C16.4664 17.6896 17.6899 16.466 17.8552 14.9167C17.8687 14.7912 17.8816 14.6656 17.8942 14.54H0.272461Z" fill="url(#paint2_linear_309_2355)"/>
<path d="M12.2127 3.02539C10.63 3.02539 9.34698 4.30851 9.34698 5.89126V8.03187H7.80469V10.6822L9.34698 12.0636V18.1651C11.2044 18.1561 13.0617 18.0529 14.9166 17.855C16.4659 17.6896 17.6894 16.466 17.8548 14.9166C18.1633 12.0258 18.2422 9.12857 18.0915 6.23443L14.8825 3.02539H12.2127Z" fill="url(#paint3_linear_309_2355)"/>
<path d="M9.34698 18.1651C10.4054 18.16 11.4637 18.1241 12.5216 18.0576V10.6822H14.628L14.8825 8.03187H12.5216V6.34891C12.5216 5.97719 12.8229 5.67589 13.1947 5.67589H14.8825V3.02539H12.2127C10.63 3.02539 9.34698 4.30851 9.34698 5.89126V8.03187H7.80469V10.6822H9.34698V18.1651Z" fill="white"/>
<defs>
<linearGradient id="paint0_linear_309_2355" x1="6.03146" y1="2.5541" x2="10.6261" y2="12.3846" gradientUnits="userSpaceOnUse">
<stop stop-color="#3457A0"/>
<stop offset="1" stop-color="#3B5998"/>
</linearGradient>
<linearGradient id="paint1_linear_309_2355" x1="12.5294" y1="11.4506" x2="-3.35066" y2="0.539505" gradientUnits="userSpaceOnUse">
<stop stop-color="#3457A0" stop-opacity="0"/>
<stop offset="1" stop-color="#1F3F77"/>
</linearGradient>
<linearGradient id="paint2_linear_309_2355" x1="9.08325" y1="15.1811" x2="9.08325" y2="17.6393" gradientUnits="userSpaceOnUse">
<stop stop-color="#3457A0" stop-opacity="0"/>
<stop offset="1" stop-color="#1F3F77"/>
</linearGradient>
<linearGradient id="paint3_linear_309_2355" x1="20.8544" y1="15.0022" x2="8.24573" y2="8.64438" gradientUnits="userSpaceOnUse">
<stop stop-color="#3457A0" stop-opacity="0"/>
<stop offset="0.3251" stop-color="#2A4C8D" stop-opacity="0.32549"/>
<stop offset="0.7045" stop-color="#22427D" stop-opacity="0.705882"/>
<stop offset="1" stop-color="#1F3F77"/>
</linearGradient>
</defs>
</svg>
