<svg width="71" height="28" viewBox="0 0 71 28" fill="none" xmlns="http://www.w3.org/2000/svg">
<path d="M8.17959 11.7823C9.32713 11.0913 10.8222 11.0913 11.9698 11.7823C12.3259 11.9967 12.8071 11.9098 13.0445 11.5881C13.282 11.2665 13.1857 10.8319 12.8296 10.6174C11.1613 9.61287 8.98799 9.61287 7.3198 10.6174C6.96369 10.8319 6.86743 11.2665 7.10482 11.5881C7.34228 11.9098 7.82347 11.9967 8.17959 11.7823Z" fill="white"/>
<path d="M19.0297 11.7823C20.1772 11.0913 21.6723 11.0913 22.8199 11.7823C23.176 11.9967 23.6572 11.9098 23.8946 11.5881C24.1321 11.2665 24.0358 10.8319 23.6797 10.6174C22.0114 9.61287 19.8381 9.61287 18.1699 10.6174C17.8138 10.8319 17.7175 11.2665 17.9549 11.5881C18.1924 11.9098 18.6736 11.9967 19.0297 11.7823Z" fill="white"/>
<path fill-rule="evenodd" clip-rule="evenodd" d="M22.6745 18.2C22.9117 17.7565 23.1051 17.2882 23.2495 16.8H7.74951C7.89389 17.2882 8.08733 17.7565 8.32448 18.2C9.65741 20.6932 12.37 22.4 15.4995 22.4C18.629 22.4 21.3416 20.6932 22.6745 18.2ZM15.4995 21C13.2755 21 11.2738 19.9113 10.0917 18.2H20.9073C19.7252 19.9113 17.7235 21 15.4995 21Z" fill="white"/>
<path fill-rule="evenodd" clip-rule="evenodd" d="M15.5 28C24.0604 28 31 21.732 31 14C31 6.26801 24.0604 0 15.5 0C6.93958 0 0 6.26801 0 14C0 21.732 6.93958 28 15.5 28ZM15.5 26.6C23.2044 26.6 29.45 20.9588 29.45 14C29.45 7.04123 23.2044 1.4 15.5 1.4C7.79565 1.4 1.55 7.04123 1.55 14C1.55 20.9588 7.79565 26.6 15.5 26.6Z" fill="white"/>
<path d="M47.201 20.7189L47.2001 20.7198C46.91 21.0287 46.3615 21.0916 45.9751 20.8598C45.5884 20.6278 45.5101 20.1891 45.8001 19.8798L46.5001 20.2998C45.8001 19.8798 45.7998 19.88 45.8001 19.8798L45.801 19.8788L45.8022 19.8776L45.8053 19.8743L45.8144 19.8647C45.8219 19.8569 45.8319 19.8466 45.8445 19.8339C45.8698 19.8083 45.9054 19.7731 45.9512 19.7295C46.0426 19.6423 46.1751 19.5213 46.3468 19.378C46.6896 19.0918 47.1932 18.7128 47.8448 18.3337C49.1445 17.5774 51.0714 16.7998 53.5001 16.7998C55.9286 16.7998 57.8556 17.5774 59.1553 18.3337C59.8069 18.7128 60.3105 19.0918 60.6533 19.378C60.8251 19.5213 60.9574 19.6423 61.049 19.7295C61.0947 19.7731 61.1303 19.8083 61.1555 19.8339L61.1719 19.8505L61.1856 19.8647L61.1948 19.8743L61.1979 19.8776L61.1991 19.8788C61.1993 19.879 61.2001 19.8798 60.531 20.2813L61.2001 19.8798C61.49 20.1891 61.4117 20.6278 61.0251 20.8598C60.639 21.0914 60.0916 21.0293 59.8014 20.7212L59.8008 20.7206C59.8006 20.7204 59.8001 20.7198 60.5001 20.2998L59.8001 20.7198L59.7991 20.7189L59.7835 20.7029C59.7681 20.6873 59.743 20.6625 59.7085 20.6295C59.6393 20.5636 59.5325 20.4658 59.3898 20.3466C59.1037 20.1078 58.6775 19.7868 58.126 19.4659C57.0195 18.8222 55.4464 18.1998 53.5001 18.1998C51.5536 18.1998 49.9806 18.8222 48.874 19.4659C48.3225 19.7868 47.8964 20.1078 47.6103 20.3466C47.4676 20.4658 47.3608 20.5636 47.2916 20.6295C47.257 20.6625 47.232 20.6873 47.2166 20.7029L47.201 20.7189Z" fill="white"/>
<path d="M47.9253 11.2502C48.374 11.1066 48.8832 11.2812 49.0627 11.6402C49.2421 11.9991 49.0239 12.4065 48.5752 12.5501L46.3882 13.25L44.2002 13.9501C43.7515 14.0937 43.2424 13.9191 43.0628 13.5601C42.8833 13.2012 43.1016 12.7938 43.5503 12.6502L47.9253 11.2502Z" fill="white"/>
<path d="M57.9378 11.6402C58.1173 11.2812 58.6265 11.1066 59.0752 11.2502L63.4502 12.6502C63.8989 12.7938 64.1171 13.2012 63.9377 13.5601C63.7581 13.9191 63.249 14.0937 62.8003 13.9501L58.4253 12.5501C57.9766 12.4065 57.7583 11.9991 57.9378 11.6402Z" fill="white"/>
<path fill-rule="evenodd" clip-rule="evenodd" d="M71 14C71 21.732 63.165 28 53.5 28C43.835 28 36 21.732 36 14C36 6.26801 43.835 0 53.5 0C63.165 0 71 6.26801 71 14ZM69.25 14C69.25 20.9588 62.1985 26.6 53.5 26.6C44.8015 26.6 37.75 20.9588 37.75 14C37.75 7.04123 44.8015 1.4 53.5 1.4C62.1985 1.4 69.25 7.04123 69.25 14Z" fill="white"/>
</svg>
