<svg width="52" height="39" viewBox="0 0 52 39" fill="none" xmlns="http://www.w3.org/2000/svg">
<path fill-rule="evenodd" clip-rule="evenodd" d="M0.0020153 4.58851C0.207568 7.83817 1.2564 9.84984 2.7924 11.0895C2.04243 11.5821 1.60764 12.4089 1.76728 13.3028C2.55104 17.6918 4.5105 26.9755 8.52727 37.4401C9.3256 39.52 12.5141 39.52 13.3124 37.4401C17.3291 26.9755 19.2887 17.6918 20.0725 13.3028C20.232 12.4089 19.7973 11.5821 19.0473 11.0894C20.5833 9.84984 21.632 7.83817 21.8376 4.58851C21.8798 3.92267 21.2594 3.3742 20.5033 3.38374C18.2739 3.41199 16.5032 3.53142 15.1218 3.9409C14.5516 2.61452 13.4004 1.36224 11.6679 0.219045C11.2253 -0.0730149 10.6143 -0.0730149 10.1717 0.219045C8.45332 1.35295 7.30664 2.59411 6.7318 3.90854C5.39033 3.55968 3.6337 3.42129 1.33988 3.38591C0.583726 3.3742 -0.0401057 3.92267 0.0020153 4.58851ZM13.4954 6.9709L12.5609 4.79694C12.3021 4.19509 11.7964 3.51826 10.9198 2.80435C10.0523 3.51077 9.54812 4.18084 9.28698 4.77774L8.37856 6.85473L5.95709 6.22499C5.24277 6.03927 4.26739 5.91526 2.89704 5.8492C3.30416 8.17749 4.28275 9.16153 5.17485 9.67039C6.45043 10.3978 8.30899 10.6192 10.8788 10.6215H10.9607C13.5307 10.6192 15.3892 10.3978 16.6647 9.67039C17.5577 9.16105 18.5373 8.17568 18.9437 5.84256C17.6157 5.9039 16.6835 6.02587 15.9944 6.23007L13.4954 6.9709ZM4.49223 13.0366H17.3475C16.9552 15.2191 16.2741 18.5904 15.1979 22.697H9.55031V25.1121H14.5416C13.5958 28.4719 12.4047 32.2156 10.9198 36.1371C10.4348 34.8559 9.98097 33.5935 9.55688 32.3575H10.9197V29.9424H8.75417C7.44302 25.8681 6.46205 22.1512 5.74498 19.0744H9.55031V16.6592H5.20601C4.90328 15.2389 4.66856 14.0177 4.49223 13.0366Z" fill="white"/>
<path d="M45.4852 23.9406C46.2189 24.1024 46.6651 24.758 46.4816 25.405C45.6743 28.2528 43.2372 30.4019 40.0079 31.1139C39.2742 31.2757 38.5307 30.8823 38.3474 30.2352C38.1639 29.5882 38.61 28.9327 39.3437 28.7708C41.5918 28.2753 43.2626 26.8017 43.8248 24.8192C44.0081 24.1722 44.7515 23.7789 45.4852 23.9406Z" fill="white"/>
<path fill-rule="evenodd" clip-rule="evenodd" d="M37.8285 15.4849C36.3101 12.3538 36.5733 9.02761 39.2749 6.64523L37.3384 4.9375C34.1486 7.75026 33.5947 11.431 34.6646 14.8128C28.3989 12.3129 21.8745 16.9102 21.8745 23.9047C21.8745 30.5738 28.6184 35.9803 36.9373 35.9803C45.2562 35.9803 52.0001 30.5738 52.0001 23.9047C52.0001 16.3935 44.4762 11.6468 37.8285 15.4849ZM36.9373 19.1484L35.2264 17.9414C32.6823 16.1465 30.1758 16.2463 28.2776 17.2802C26.2707 18.3733 24.6132 20.7137 24.6132 23.9047C24.6132 29.0285 29.8794 33.5652 36.9373 33.5652C43.9952 33.5652 49.2614 29.0285 49.2614 23.9047C49.2614 20.7137 47.604 18.3733 45.597 17.2802C43.6989 16.2463 41.1923 16.1465 38.6482 17.9414L36.9373 19.1484Z" fill="white"/>
<path d="M39.6758 11.829C43.7838 11.829 46.5225 9.41393 46.5225 5.79126C42.4145 5.79126 39.6758 8.20637 39.6758 11.829Z" fill="white"/>
</svg>
