<svg width="52" height="42" viewBox="0 0 52 42" fill="none" xmlns="http://www.w3.org/2000/svg">
<path fill-rule="evenodd" clip-rule="evenodd" d="M8.67634 5.12185C8.67634 3.42462 10.2076 2.04874 12.0966 2.04874C13.9855 2.04874 15.5168 3.42462 15.5168 5.12185C15.5168 6.81907 13.9855 8.19495 12.0966 8.19495C10.2076 8.19495 8.67634 6.81907 8.67634 5.12185ZM12.0966 0C9.33877 0 7.03839 1.75962 6.51023 4.09748H4.11606H2.97599V5.12185C2.97599 6.71581 3.48246 8.20346 4.35871 9.462C4.19308 9.52274 4.03044 9.59168 3.87439 9.66523C3.31012 9.93126 2.69953 10.3196 2.13372 10.8275C0.996263 11.8486 0 13.3935 0 15.4273C0 17.9376 0.92624 19.7685 2.06861 20.9834C2.63409 21.5849 3.25061 22.0333 3.82826 22.337C4.01445 22.4348 4.20929 22.5243 4.40749 22.5996V39.2134C4.40749 40.7479 5.80007 41.9991 7.5079 41.9991C9.21572 41.9991 10.6083 40.7479 10.6083 39.2134V28.1981H13.4481V39.2134C13.4481 40.7479 14.8407 41.9991 16.5485 41.9991C18.2564 41.9991 19.649 40.7479 19.649 39.2134V24.4778C20.1602 24.5483 20.6839 24.5849 21.2171 24.5849H22.3573C24.8933 24.5849 27.1876 23.6548 28.8408 22.1536C28.3696 23.7874 28.0576 25.6335 28.0576 27.658C28.0576 28.0104 28.1249 28.3564 28.2532 28.6823H24.6373H23.4973V29.7067V40.9748H25.7774V30.7311H31.4628H31.4778H39.4583V40.9748H41.7384V31.0165L45.3645 39.9763C46.01 41.5714 47.9724 42.3941 49.7476 41.8141C51.5229 41.2341 52.4387 39.4709 51.7932 37.8759L47.2329 26.6078C47.0808 26.2322 46.8529 25.8953 46.568 25.6092H48.5788C50.4678 25.6092 51.9991 24.2334 51.9991 22.5361C51.9991 20.8389 50.4678 19.463 48.5788 19.463H41.6466L39.2868 14.8689C40.0295 15.1873 40.8608 15.3655 41.7384 15.3655C44.8866 15.3655 47.4388 13.0724 47.4388 10.2437C47.4388 7.415 44.8866 5.12185 41.7384 5.12185C38.5902 5.12185 36.0381 7.415 36.0381 10.2437C36.0381 11.214 36.3384 12.1214 36.8601 12.8947C36.7548 12.8713 36.6479 12.8523 36.5395 12.8378C35.398 12.6859 34.2484 13.0612 33.4818 13.8361L33.4559 13.8623L33.4321 13.8899L32.561 14.9018L32.5457 14.9195L32.5313 14.9379C32.2237 15.3294 31.8612 15.8231 31.4778 16.4119L31.4779 16.3899L31.4778 14.3412H29.53C29.015 13.883 28.3065 13.6 27.5246 13.5999H24.335L19.4084 10.0212C20.5445 8.65459 21.2171 6.9588 21.2171 5.12185V4.09748H20.0771H17.6829C17.1547 1.75962 14.8544 0 12.0966 0ZM5.54757 11.2681H6.0637C7.40313 12.3303 9.09247 13.0445 10.9565 13.2534V15.3655C10.9565 19.2344 13.6087 22.5467 17.3688 23.9145V39.2134C17.3688 39.6164 16.997 39.9504 16.5485 39.9504C16.1 39.9504 15.7283 39.6164 15.7283 39.2134V27.1738V26.1494H14.5882H9.46824H8.32817V27.1738V39.2134C8.32817 39.6164 7.95643 39.9504 7.5079 39.9504C7.05936 39.9504 6.68764 39.6164 6.68764 39.2134V21.8119V20.7875H6.68568V14.3412H4.40553V20.1993C4.20991 20.0503 4.00816 19.8716 3.81038 19.6612C3.01856 18.8191 2.28014 17.4577 2.28014 15.4273C2.28014 14.0389 2.94854 12.9921 3.74527 12.2769C4.14657 11.9166 4.57047 11.6507 4.93369 11.4795C5.32152 11.2966 5.53693 11.2694 5.54757 11.2681ZM21.2171 22.5361C20.6804 22.5361 20.1559 22.4885 19.649 22.3977V16.7822L21.5351 18.1523C22.0423 18.5208 22.6747 18.7218 23.3269 18.7218H27.5245C27.9846 18.7219 28.4193 18.6239 28.8041 18.4499C27.8615 20.8312 25.331 22.5361 22.3573 22.5361H21.2171ZM13.2366 15.3655C13.2366 18.0719 14.9054 20.4282 17.3688 21.6488V14.6368V12.4914L19.2257 13.8403L22.9686 16.5591C23.0701 16.6328 23.1965 16.673 23.3269 16.673H27.5245C27.8393 16.6731 28.0945 16.4438 28.0945 16.161C28.0945 15.878 27.8393 15.6488 27.5245 15.6487H23.9318H23.5286L23.215 15.4209L17.8206 11.5023C16.5343 12.4351 14.9601 13.0603 13.2366 13.2534V15.3655ZM12.0966 11.2681C15.486 11.2681 18.2997 9.05307 18.8424 6.14622H17.6829C17.1547 8.48403 14.8544 10.2437 12.0966 10.2437C9.33877 10.2437 7.03839 8.48403 6.51023 6.14622H5.35071C5.89347 9.05307 8.70712 11.2681 12.0966 11.2681ZM38.3182 10.2437C38.3182 8.54642 39.8494 7.17059 41.7384 7.17059C43.6274 7.17059 45.1586 8.54642 45.1586 10.2437C45.1586 11.941 43.6274 13.3168 41.7384 13.3168C39.8494 13.3168 38.3182 11.941 38.3182 10.2437ZM41.7384 28.6823H42.4214H43.2201L43.4929 29.3567L47.5074 39.2762C47.7225 39.8078 48.3767 40.0821 48.9684 39.8887C49.5602 39.6954 49.8654 39.1077 49.6503 38.576L45.09 27.3079C44.9262 26.9031 44.498 26.6336 44.0186 26.6336H33.8981H32.6086L32.7667 25.4837C33.0874 23.1497 33.8805 21.1853 34.6925 19.6918L35.7461 17.7539L36.752 19.7121L38.4231 22.9654C38.6095 23.3282 39.0135 23.5605 39.4583 23.5605H48.5788C49.2085 23.5605 49.7189 23.1019 49.7189 22.5361C49.7189 21.9704 49.2085 21.5118 48.5788 21.5118H40.9172H40.1877L39.882 20.9167L37.0732 15.4485C36.912 15.1347 36.5856 14.9151 36.2052 14.8644C35.8354 14.8152 35.463 14.932 35.2077 15.1758L34.3799 16.1373C33.9263 16.7165 33.3315 17.5547 32.7382 18.6208C31.5402 20.7735 30.3377 23.8758 30.3377 27.658C30.3377 27.9296 30.4579 28.1902 30.6716 28.3823C30.8833 28.5726 31.1698 28.6803 31.4691 28.6823H40.5983H41.7384ZM36.3528 23.824C36.4975 24.1056 36.686 24.3609 36.9089 24.5849H35.2359C35.3831 23.9203 35.5707 23.2953 35.7826 22.7136L36.3528 23.824Z" fill="white"/>
</svg>
