<svg width="107" height="119" viewBox="0 0 107 119" fill="none" xmlns="http://www.w3.org/2000/svg">
<path d="M92.5335 108.029C91.5624 108.029 90.7754 107.242 90.7754 106.271V100.895C90.7754 99.9241 91.5627 99.1371 92.5335 99.1371C93.5043 99.1371 94.2916 99.9244 94.2916 100.895V106.271C94.2916 107.242 93.5045 108.029 92.5335 108.029Z" fill="#497090"/>
<path d="M95.7214 99.8984L93.7216 101.995C93.075 102.673 91.9935 102.673 91.3469 101.995L89.3471 99.8984C89.0559 99.5931 88.8936 99.1875 88.8936 98.7657V89.9215H96.1752V98.7657C96.1752 99.1875 96.0127 99.5931 95.7214 99.8984Z" fill="#5680A6"/>
<path d="M96.3343 92.2658H88.7337C87.8275 92.2658 87.0928 91.5311 87.0928 90.6249V66.7801L89.5362 64.4358H95.5138L97.9753 66.7801V90.6249C97.9753 91.5311 97.2408 92.2658 96.3343 92.2658Z" fill="#99E6FC"/>
<path d="M91.7821 64.4354V92.2657H88.7347C87.8284 92.2657 87.0938 91.531 87.0938 90.6247V66.7797L89.302 64.4354H91.7821Z" fill="#62DBFB"/>
<path d="M96.1636 25.4122H88.9043V17.423C88.9043 16.5315 89.627 15.8088 90.5185 15.8088H94.5492C95.4407 15.8088 96.1634 16.5315 96.1634 17.423V25.4122H96.1636Z" fill="#0EBE7F"/>
<path d="M97.9755 66.7801H87.0928V24.6823C87.0928 23.7908 87.8155 23.0681 88.707 23.0681H96.3613C97.2528 23.0681 97.9755 23.7908 97.9755 24.6823V66.7801Z" fill="#5680A6"/>
<path d="M91.7821 23.0674V66.7795H87.0938V24.7081C87.0938 23.8018 87.8284 23.0671 88.7347 23.0671H91.7821V23.0674Z" fill="#497090"/>
<path d="M105.242 53.975C104.271 53.975 103.484 53.1877 103.484 52.2169V32.1302H87.0931C86.122 32.1302 85.335 31.3429 85.335 30.3721C85.335 29.4013 86.1222 28.614 87.0931 28.614H105.242C106.213 28.614 107 29.4013 107 30.3721V52.2169C107 53.188 106.213 53.975 105.242 53.975Z" fill="#99E6FC"/>
<path d="M81.17 8.99238V116.453C81.17 117.345 80.4473 118.067 79.5558 118.067H1.6142C0.722702 118.067 0 117.345 0 116.453V8.99238C0 8.10088 0.722702 7.37817 1.6142 7.37817H14.9973L19.7498 9.68418H61.4204L66.1729 7.37817H79.556C80.4473 7.37817 81.17 8.10088 81.17 8.99238Z" fill="#FED2A4"/>
<path d="M66.1736 7.37817V14.759H14.998V7.37817H19.7505L22.0226 9.68418H58.9187L61.4212 7.37817H66.1736Z" fill="#FFBD86"/>
<path d="M73.7911 16.3735V109.075C73.7911 109.966 73.0684 110.689 72.1769 110.689H8.99262C8.10112 110.689 7.37842 109.966 7.37842 109.075V16.3735C7.37842 15.482 8.10112 14.7593 8.99262 14.7593H72.1769C73.0684 14.7593 73.7911 15.482 73.7911 16.3735Z" fill="#F2FBFF"/>
<path d="M66.1736 14.7593V21.5738C66.1736 22.4653 65.4509 23.188 64.5594 23.188H16.6123C15.7207 23.188 14.998 22.4653 14.998 21.5738V14.7593H66.1736Z" fill="#DFF6FD"/>
<path d="M4.75129 7.37817V118.067H1.6142C0.722702 118.067 0 117.345 0 116.453V8.99238C0 8.10088 0.722702 7.37817 1.6142 7.37817H4.75129Z" fill="#FFBD86"/>
<path d="M12.1297 14.7593V110.689H8.99262C8.10112 110.689 7.37842 109.966 7.37842 109.075V16.3735C7.37842 15.482 8.10112 14.7593 8.99262 14.7593H12.1297Z" fill="#DFF6FD"/>
<path d="M47.9642 7.37922C47.9642 3.30381 44.6604 0 40.585 0C36.5096 0 33.2057 3.30381 33.2057 7.37922H19.7495V16.8223C19.7495 17.7138 20.4722 18.4365 21.3637 18.4365H59.806C60.6975 18.4365 61.4202 17.7138 61.4202 16.8223V7.60982V7.37922H47.9642Z" fill="#62DBFB"/>
<path d="M41.9144 6.00739C42.6489 6.74185 42.6489 7.9329 41.9144 8.66737C41.18 9.40183 39.9889 9.40183 39.2545 8.66737C38.52 7.9329 38.52 6.74185 39.2545 6.00739C39.9892 5.27293 41.18 5.27293 41.9144 6.00739Z" fill="#5680A6"/>
<path d="M60.9047 75.0818H37.0982C36.143 75.0818 35.3687 74.3075 35.3687 73.3523C35.3687 72.3972 36.143 71.6228 37.0982 71.6228H60.9044C61.8596 71.6228 62.6339 72.3972 62.6339 73.3523C62.6339 74.3075 61.8598 75.0818 60.9047 75.0818Z" fill="#5680A6"/>
<path d="M60.9047 82.245H37.0982C36.143 82.245 35.3687 81.4707 35.3687 80.5155C35.3687 79.5604 36.143 78.786 37.0982 78.786H60.9044C61.8596 78.786 62.6339 79.5604 62.6339 80.5155C62.6339 81.4707 61.8598 82.245 60.9047 82.245Z" fill="#5680A6"/>
<path d="M60.9047 89.4079H37.0982C36.143 89.4079 35.3687 88.6335 35.3687 87.6784C35.3687 86.7232 36.143 85.9489 37.0982 85.9489H60.9044C61.8596 85.9489 62.6339 86.7232 62.6339 87.6784C62.6339 88.6335 61.8598 89.4079 60.9047 89.4079Z" fill="#5680A6"/>
<path d="M29.9341 75.0819H19.1895C18.2343 75.0819 17.46 74.3076 17.46 73.3524C17.46 72.3973 18.2343 71.6229 19.1895 71.6229H29.9341C30.8892 71.6229 31.6636 72.3973 31.6636 73.3524C31.6636 74.3076 30.8892 75.0819 29.9341 75.0819Z" fill="#5680A6"/>
<path d="M29.935 82.245H19.1904C18.2353 82.245 17.4609 81.4707 17.4609 80.5155C17.4609 79.5604 18.2353 78.786 19.1904 78.786H29.935C30.8902 78.786 31.6645 79.5604 31.6645 80.5155C31.6645 81.4707 30.8902 82.245 29.935 82.245Z" fill="#5680A6"/>
<path d="M29.935 89.4079H19.1904C18.2353 89.4079 17.4609 88.6335 17.4609 87.6784C17.4609 86.7232 18.2353 85.9489 19.1904 85.9489H29.935C30.8902 85.9489 31.6645 86.7232 31.6645 87.6784C31.6645 88.6335 30.8902 89.4079 29.935 89.4079Z" fill="#5680A6"/>
<path d="M60.5286 100.037H47.0454C46.0903 100.037 45.3159 99.2627 45.3159 98.3075C45.3159 97.3524 46.0903 96.578 47.0454 96.578H60.5286C61.4838 96.578 62.2581 97.3524 62.2581 98.3075C62.2581 99.2627 61.4838 100.037 60.5286 100.037Z" fill="#5680A6"/>
<path d="M40.6777 62.6006C50.5658 62.6006 58.5816 54.5848 58.5816 44.6968C58.5816 34.8088 50.5658 26.793 40.6777 26.793C30.7897 26.793 22.7739 34.8088 22.7739 44.6968C22.7739 54.5848 30.7897 62.6006 40.6777 62.6006Z" fill="#0EBE7F"/>
<path d="M49.8086 41.1187H45.8741C44.9826 41.1187 44.2599 40.396 44.2599 39.5045V35.57C44.2599 34.6785 43.5372 33.9558 42.6457 33.9558H38.7112C37.8197 33.9558 37.097 34.6785 37.097 35.57V39.5045C37.097 40.396 36.3743 41.1187 35.4828 41.1187H31.5483C30.6568 41.1187 29.9341 41.8414 29.9341 42.7329V46.6674C29.9341 47.5589 30.6568 48.2816 31.5483 48.2816H35.4828C36.3743 48.2816 37.097 49.0043 37.097 49.8958V53.8303C37.097 54.7218 37.8197 55.4445 38.7112 55.4445H42.6457C43.5372 55.4445 44.2599 54.7218 44.2599 53.8303V49.8958C44.2599 49.0043 44.9826 48.2816 45.8741 48.2816H49.8086C50.7001 48.2816 51.4228 47.5589 51.4228 46.6674V42.7329C51.4228 41.8414 50.7001 41.1187 49.8086 41.1187Z" fill="#F2FBFF"/>
</svg>
