<svg width="88" height="118" viewBox="0 0 88 118" fill="none" xmlns="http://www.w3.org/2000/svg">
<path d="M85.0053 118H9.35075C8.05897 118 7.01172 116.953 7.01172 115.661V97.208H87.3441V115.661C87.3444 116.953 86.2971 118 85.0053 118Z" fill="#BED8FB"/>
<path d="M7.0127 24.4365V109.022H79.7844C83.96 109.022 87.3451 105.637 87.3451 101.461V24.4365H7.0127Z" fill="#F9F6F6"/>
<path d="M81.2014 24.4365V101.461C81.2014 105.637 77.8163 109.022 73.6406 109.022H79.7838C83.9594 109.022 87.3445 105.637 87.3445 101.461V24.4365H81.2014Z" fill="#DDDAEC"/>
<path d="M87.3451 24.4365H7.0127V11.654C7.0127 10.3622 8.05995 9.31494 9.35172 9.31494H85.0063C86.2981 9.31494 87.3453 10.3622 87.3453 11.654V24.4365H87.3451Z" fill="#0EBE7F"/>
<path d="M87.3443 24.4365H81.2012V9.31494H85.0053C86.2971 9.31494 87.3443 10.3622 87.3443 11.654V24.4365Z" fill="#03915E"/>
<path d="M2.34349 101.461C0.603221 101.461 -0.529534 103.295 0.251525 104.85C1.49421 107.324 4.05472 109.022 7.01186 109.022H79.7835C76.2172 109.022 73.2276 106.552 72.4309 103.23C72.1808 102.187 71.2359 101.461 70.1638 101.461H2.34349Z" fill="#CBE2FF"/>
<path d="M21.1885 38.1543V33.4004C21.1885 32.6253 21.8167 31.9971 22.5918 31.9971H71.7648C72.5399 31.9971 73.1682 32.6253 73.1682 33.4004V38.1543C73.1682 38.9293 72.5399 39.5576 71.7648 39.5576H22.5918C21.8167 39.5576 21.1885 38.9293 21.1885 38.1543Z" fill="#0EBE7F"/>
<path d="M52.9846 9.31485C52.9846 6.11318 50.3798 3.50843 47.1781 3.50843C43.9765 3.50843 41.3717 6.11318 41.3717 9.31485C41.3717 12.5165 43.9765 15.1213 47.1781 15.1213C48.147 15.1213 48.9322 15.9067 48.9322 16.8754C48.9322 17.844 48.1468 18.6295 47.1781 18.6295C42.0419 18.6295 37.8633 14.4508 37.8633 9.31462C37.8633 4.1784 42.0417 0 47.1779 0C52.3141 0 56.4928 4.17863 56.4928 9.31485H52.9846Z" fill="#D0CEE7"/>
<path d="M31.7199 9.31485C31.7199 6.11318 29.1152 3.50843 25.9135 3.50843C22.7118 3.50843 20.1071 6.11318 20.1071 9.31485C20.1071 12.5165 22.7118 15.1213 25.9135 15.1213C26.8824 15.1213 27.6676 15.9067 27.6676 16.8754C27.6676 17.844 26.8821 18.6295 25.9135 18.6295C20.7773 18.6295 16.5986 14.4508 16.5986 9.31462C16.5986 4.1784 20.777 0 25.9133 0C31.0495 0 35.2281 4.17863 35.2281 9.31485H31.7199Z" fill="#D0CEE7"/>
<path d="M74.2492 9.31485C74.2492 6.11318 71.6445 3.50843 68.4428 3.50843C65.2411 3.50843 62.6364 6.11318 62.6364 9.31485C62.6364 12.5165 65.2411 15.1213 68.4428 15.1213C69.4117 15.1213 70.1969 15.9067 70.1969 16.8754C70.1969 17.844 69.4114 18.6295 68.4428 18.6295C63.3066 18.6295 59.1279 14.4508 59.1279 9.31462C59.1279 4.1784 63.3066 0 68.4428 0C73.579 0 77.7576 4.17863 77.7576 9.31485H74.2492Z" fill="#D0CEE7"/>
<path d="M76.239 51.4716H33.2375C32.2686 51.4716 31.4834 50.6861 31.4834 49.7175C31.4834 48.7486 32.2688 47.9634 33.2375 47.9634H76.239C77.2079 47.9634 77.9931 48.7488 77.9931 49.7175C77.9931 50.6864 77.2077 51.4716 76.239 51.4716Z" fill="#CBE2FF"/>
<path d="M56.8657 59.0324H33.2385C32.2696 59.0324 31.4844 58.2469 31.4844 57.2783C31.4844 56.3094 32.2698 55.5242 33.2385 55.5242H56.8657C57.8346 55.5242 58.62 56.3096 58.62 57.2783C58.6198 58.2469 57.8343 59.0324 56.8657 59.0324Z" fill="#CBE2FF"/>
<path d="M20.8168 59.0324C20.3137 59.0324 19.8322 58.816 19.4978 58.4346L16.7974 55.3544C16.1588 54.6258 16.2316 53.5175 16.9601 52.8789C17.6886 52.24 18.7967 52.3131 19.4356 53.0416L20.6006 54.3705L24.2015 48.7689C24.7253 47.9538 25.8108 47.7182 26.6258 48.2419C27.4407 48.7659 27.6767 49.8512 27.1528 50.6662L22.2925 58.2269C21.9945 58.6904 21.4962 58.9868 20.947 59.0278C20.9035 59.0308 20.8601 59.0324 20.8168 59.0324Z" fill="#B3E59F"/>
<path d="M76.239 68.9557H33.2375C32.2686 68.9557 31.4834 68.1703 31.4834 67.2014C31.4834 66.2325 32.2688 65.4473 33.2375 65.4473H76.239C77.2079 65.4473 77.9931 66.2327 77.9931 67.2014C77.9931 68.1703 77.2077 68.9557 76.239 68.9557Z" fill="#CBE2FF"/>
<path d="M56.8657 76.5162H33.2385C32.2696 76.5162 31.4844 75.7308 31.4844 74.7619C31.4844 73.793 32.2698 73.0078 33.2385 73.0078H56.8657C57.8346 73.0078 58.62 73.7932 58.62 74.7619C58.62 75.7306 57.8343 76.5162 56.8657 76.5162Z" fill="#CBE2FF"/>
<path d="M20.8168 76.5162C20.3137 76.5162 19.8322 76.2998 19.4978 75.9184L16.7974 72.8382C16.1588 72.1097 16.2316 71.0014 16.9601 70.3627C17.6886 69.7239 18.7967 69.7969 19.4356 70.5254L20.6006 71.8543L24.2015 66.2528C24.7253 65.4378 25.8108 65.2021 26.6258 65.7257C27.4407 66.2498 27.6767 67.3351 27.1528 68.15L22.2925 75.7107C21.9945 76.1742 21.4962 76.4706 20.947 76.5116C20.9035 76.5149 20.8601 76.5162 20.8168 76.5162Z" fill="#B3E59F"/>
<path d="M76.239 86.4398H33.2375C32.2686 86.4398 31.4834 85.6544 31.4834 84.6857C31.4834 83.7168 32.2688 82.9314 33.2375 82.9314H76.239C77.2079 82.9314 77.9931 83.7168 77.9931 84.6857C77.9931 85.6544 77.2077 86.4398 76.239 86.4398Z" fill="#CBE2FF"/>
<path d="M56.8657 94.0006H33.2385C32.2696 94.0006 31.4844 93.2152 31.4844 92.2463C31.4844 91.2774 32.2698 90.4922 33.2385 90.4922H56.8657C57.8346 90.4922 58.62 91.2776 58.62 92.2463C58.6198 93.2152 57.8343 94.0006 56.8657 94.0006Z" fill="#CBE2FF"/>
<path d="M20.8168 94.0006C20.3137 94.0006 19.8322 93.7841 19.4978 93.4027L16.7974 90.3225C16.1588 89.594 16.2316 88.4857 16.9601 87.847C17.6886 87.2082 18.7967 87.2812 19.4356 88.0097L20.6006 89.3386L24.2015 83.7371C24.7253 82.9219 25.8108 82.6864 26.6258 83.21C27.4407 83.7341 27.6767 84.8194 27.1528 85.6343L22.2925 93.1951C21.9945 93.6585 21.4962 93.9549 20.947 93.9959C20.9035 93.9989 20.8601 94.0006 20.8168 94.0006Z" fill="#B3E59F"/>
</svg>
