<svg width="75" height="79" viewBox="0 0 75 79" fill="none" xmlns="http://www.w3.org/2000/svg">
<g clip-path="url(#clip0_338_189)">
<path d="M57.5832 47.9707C57.5832 53.226 55.6476 59.2566 46.2016 59.7986H34.3167C33.9177 59.7986 33.5941 59.4749 33.5941 59.076V51.1914C33.5941 50.7925 34.0253 50.6838 34.4242 50.6838H43.3497C44.6681 50.6838 45.6295 49.3999 45.6295 48.0815V44.9543C45.6295 43.6359 44.5606 42.567 43.2422 42.567H34.4307C33.9683 42.567 33.5941 42.1928 33.5941 41.7304V34.9298C33.5941 34.4674 33.9683 33.8781 34.4307 33.8781H47.0361C48.3545 33.8781 49.4234 33.0243 49.4234 31.7059V28.1916C49.4234 26.8732 48.3545 25.8043 47.0361 25.8043H26.5999C26.2913 25.8043 26.0407 26.0548 26.0407 26.3635V59.076C26.0407 59.4749 25.717 59.7986 25.3181 59.7986H19.2358C18.8369 59.7986 18.5132 59.4749 18.5132 59.076V19.1241C18.5132 18.7252 18.8369 18.509 19.2358 18.509H46.536C49.1502 18.509 51.5182 19.5693 53.2312 21.2824C54.9443 22.9954 56.0046 26.5463 56.0046 29.1605C56.0046 33.8394 54.1786 37.7247 50.0503 38.4903C54.1141 38.814 57.5832 43.1821 57.5832 47.9707Z" fill="url(#paint0_linear_338_189)"/>
<path d="M54.0907 71.3395V78.0068C54.0907 78.3466 53.8154 78.6219 53.4756 78.6219H0.615107C0.275292 78.6219 0 78.3466 0 78.0068V16.9091C0 16.5692 0.275292 16.2939 0.615107 16.2939H6.95974C7.29955 16.2939 7.57485 16.5692 7.57485 16.9091V70.1093C7.57485 70.4491 7.85014 70.7244 8.18995 70.7244H53.4756C53.8154 70.7244 54.0907 70.9997 54.0907 71.3395Z" fill="url(#paint1_linear_338_189)"/>
<path d="M75 62.4613H68.7629C68.4231 62.4613 68.1478 62.186 68.1478 61.8462V8.08242C68.1478 7.7426 67.8725 7.46731 67.5327 7.46731H22.1395C21.7997 7.46731 21.5244 7.19202 21.5244 6.8522V0.615107C21.5244 0.275292 21.7997 0 22.1395 0H75" fill="url(#paint2_linear_338_189)"/>
</g>
<defs>
<linearGradient id="paint0_linear_338_189" x1="18.5132" y1="39.1537" x2="57.5832" y2="39.1537" gradientUnits="userSpaceOnUse">
<stop stop-color="#0EBE7E"/>
<stop offset="1" stop-color="#07D9AD"/>
</linearGradient>
<linearGradient id="paint1_linear_338_189" x1="0" y1="47.4579" x2="54.0907" y2="47.4579" gradientUnits="userSpaceOnUse">
<stop stop-color="#0EBE7E"/>
<stop offset="1" stop-color="#07D9AD"/>
</linearGradient>
<linearGradient id="paint2_linear_338_189" x1="75" y1="31.2306" x2="21.5244" y2="31.2306" gradientUnits="userSpaceOnUse">
<stop stop-color="#0EBE7E"/>
<stop offset="1" stop-color="#07D9AD"/>
</linearGradient>
<clipPath id="clip0_338_189">
<rect width="75" height="78.6218" fill="white"/>
</clipPath>
</defs>
</svg>
