<svg width="214" height="214" viewBox="0 0 214 214" fill="none" xmlns="http://www.w3.org/2000/svg">
<circle cx="107" cy="107" r="107" fill="#C6EFE5" fill-opacity="0.76"/>
<path d="M47.619 53.181H61.5034V105.154C61.5034 108.973 58.3798 112.096 54.5615 112.096C50.7431 112.096 47.6195 108.973 47.6195 105.154V53.181H47.619Z" fill="#D9DADA"/>
<path d="M47.619 53.181H60.4819V105.693C60.4819 107.899 59.4868 109.885 57.9239 111.222C56.9258 111.778 55.7794 112.096 54.5617 112.096C50.7434 112.096 47.619 108.973 47.619 105.154V53.181Z" fill="#EEF3F7"/>
<path d="M49.0546 70.2545V105.184C49.0546 108.232 51.5392 110.736 54.5619 110.736C57.5854 110.736 60.0692 108.232 60.0692 105.184V70.2545H49.0546Z" fill="#FF5B62"/>
<path d="M46.3301 51.2582H62.7938C63.8691 51.2582 64.7406 52.1297 64.7406 53.2047C64.7406 54.2798 63.8688 55.1513 62.7938 55.1513H46.3301C45.2548 55.1513 44.3833 54.2798 44.3833 53.2047C44.383 52.1294 45.2551 51.2582 46.3301 51.2582Z" fill="#EEF3F7"/>
<path d="M64.7406 53.205C64.7406 54.2751 63.8649 55.1513 62.7943 55.1513H46.329C45.2589 55.1513 44.3828 54.2756 44.3828 53.205H64.7406Z" fill="#CCD8DB"/>
<path d="M53.206 74.907C53.9013 74.907 54.4655 75.4713 54.4655 76.1666C54.4655 76.8619 53.9013 77.4261 53.206 77.4261C52.5099 77.4261 51.9456 76.8619 51.9456 76.1666C51.9459 75.4705 52.5102 74.907 53.206 74.907ZM53.8767 96.3245C54.0618 96.3245 54.2123 96.4745 54.2123 96.6601C54.2123 96.8452 54.0623 96.9957 53.8767 96.9957C53.6908 96.9957 53.5411 96.8457 53.5411 96.6601C53.5411 96.4742 53.6911 96.3245 53.8767 96.3245ZM52.9534 90.5287C53.6486 90.5287 54.2129 91.093 54.2129 91.7882C54.2129 92.4843 53.6486 93.0478 52.9534 93.0478C52.2573 93.0478 51.6938 92.4835 51.6938 91.7882C51.6935 91.093 52.2578 90.5287 52.9534 90.5287ZM56.3131 84.9856C57.4261 84.9856 58.3291 85.8885 58.3291 87.0008C58.3291 88.1139 57.4261 89.0168 56.3131 89.0168C55.2 89.0168 54.2978 88.1139 54.2978 87.0008C54.2976 85.8885 55.2 84.9856 56.3131 84.9856Z" fill="#FEFEFE"/>
<path d="M150.79 63.1811H73.2917V163.742H150.79V63.1811Z" fill="#0EBE7F"/>
<path d="M76.0789 66.6595H145.643L148.001 160.715H78.437L76.0789 66.6595Z" fill="#DCE3DB"/>
<path d="M145.642 66.6591H77.2395V158.401H145.642V66.6591Z" fill="white"/>
<path d="M103.063 60.7355H121.797C123.145 60.7355 124.249 61.8393 124.249 63.1882V71.2399H100.61V63.1887C100.61 61.8395 101.714 60.7355 103.063 60.7355Z" fill="#666666"/>
<path d="M100.102 70.6318H124.755C125.277 70.6318 125.699 71.0543 125.699 71.5759V71.5767C125.699 72.0982 125.277 72.5207 124.755 72.5207H100.102C99.5808 72.5207 99.1583 72.0982 99.1583 71.5767V71.5759C99.1583 71.0546 99.5811 70.6318 100.102 70.6318Z" fill="#B0B0B0"/>
<path d="M109.966 58.2915L107.972 70.6318H106.946L108.934 58.3216C108.369 57.5375 108.081 56.597 108.081 55.674C108.081 55.0824 108.199 54.4961 108.437 53.9583C108.678 53.4158 109.041 52.9243 109.529 52.5308C111.081 51.2784 113.772 51.277 115.324 52.53C115.813 52.9246 116.177 53.4174 116.419 53.9619C116.657 54.5008 116.776 55.0904 116.776 55.6834C116.776 56.6034 116.491 57.5397 115.927 58.3216L117.916 70.6318H116.89L114.896 58.2915C114.866 58.1351 114.912 57.9815 115.008 57.8693C115.512 57.2388 115.767 56.4556 115.767 55.6845C115.767 55.2275 115.677 54.7774 115.497 54.3695C115.318 53.9674 115.05 53.6042 114.694 53.316C113.514 52.3639 111.34 52.3653 110.161 53.3168C109.805 53.6036 109.539 53.9654 109.362 54.3659C109.182 54.7721 109.093 55.2206 109.093 55.6751C109.093 56.4539 109.354 57.246 109.866 57.8814C109.963 58.0008 109.995 58.1517 109.968 58.2912L109.966 58.2915Z" fill="#FEFEFE"/>
<path d="M156.045 91.5012L151.279 88.01L133.924 111.699L138.69 115.19L156.045 91.5012Z" fill="#0F7986"/>
<path d="M133.922 111.7L138.687 115.191L133.756 118.802L131.966 117.491L133.922 111.7Z" fill="#FF5B62"/>
<path d="M163.815 73.2562L166.33 75.0987C167.054 75.6288 167.212 76.6553 166.682 77.3787L156.281 91.5762C156.254 91.6134 156.201 91.6214 156.164 91.5944L151.153 87.923C151.116 87.8955 151.107 87.8436 151.134 87.8064L161.535 73.6089C162.065 72.8855 163.091 72.7269 163.815 73.2573V73.2562Z" fill="#FF5B62"/>
<path d="M166.683 77.3779L156.279 91.5789C156.251 91.6123 156.204 91.62 156.168 91.5963L156.165 91.5935L155.559 91.1495L166.849 75.7372C167.085 76.2576 167.042 76.8872 166.683 77.3779Z" fill="#ED4C54"/>
<path d="M132.404 117.811L133.319 118.482L131.715 120.671C131.531 120.922 131.174 120.978 130.923 120.793C130.671 120.609 130.616 120.252 130.8 120.001L132.404 117.811Z" fill="#0EBE7F"/>
<path d="M161.481 73.6838L167.667 78.2156L168 78.4599L167.742 78.8116L156.818 93.7244L156.717 93.8612L156.552 93.8971L155.474 94.1351C155.008 94.1798 154.808 93.442 155.337 93.3008L156.25 93.0992L166.817 78.6748L160.965 74.3876L161.48 73.6852V73.6841H161.481V73.6838Z" fill="#FAD24D"/>
<path d="M156.045 91.5007L155.455 91.0678L138.1 114.757L138.69 115.19L156.045 91.5007Z" fill="#076673"/>
<path d="M103.745 83.7016C103.424 83.7016 103.164 83.4415 103.164 83.1208C103.164 82.8 103.424 82.5399 103.745 82.5399H113.333L115.484 77.3258C115.606 77.0305 115.944 76.8893 116.24 77.0101C116.392 77.0721 116.502 77.1915 116.558 77.3327L116.56 77.3319L119.752 85.3889L122.468 80.7895C122.631 80.5143 122.987 80.4227 123.262 80.5857C123.349 80.6375 123.417 80.7081 123.465 80.7895L125.041 83.2041L127.323 80.7763C127.542 80.5435 127.91 80.5319 128.143 80.7509C128.186 80.7925 128.222 80.8389 128.251 80.8893L129.177 82.5411H141.611C141.931 82.5411 142.191 82.8011 142.191 83.1219C142.191 83.4423 141.931 83.7027 141.611 83.7027H128.838V83.7019C128.635 83.7019 128.438 83.5946 128.332 83.4057L127.626 82.1469L125.38 84.5348V84.5339C125.349 84.5665 125.313 84.5974 125.274 84.6227C125.006 84.7965 124.647 84.7209 124.473 84.4526L122.992 82.1814L120.165 86.9694C120.103 87.0905 119.998 87.1901 119.862 87.2433C119.565 87.3608 119.226 87.2143 119.108 86.917L116.009 79.0917L114.273 83.2989C114.197 83.5317 113.979 83.7002 113.721 83.7002H103.746L103.745 83.7016Z" fill="#0EBE7F"/>
<path d="M103.87 97.7847H83.3763V100.092H103.87V97.7847Z" fill="#0EBE7F"/>
<path d="M89.383 104.276H83.6422V110.017H89.383V104.276Z" fill="#D9DADA"/>
<path d="M113.789 104.276H108.048V110.017H113.789V104.276Z" fill="#D9DADA"/>
<path d="M103.871 120.004H83.3766V122.311H103.871V120.004Z" fill="#0EBE7F"/>
<path d="M89.3835 126.498H83.6427V132.239H89.3835V126.498Z" fill="#D9DADA"/>
<path d="M113.79 126.498H108.049V132.239H113.79V126.498Z" fill="#D9DADA"/>
<path d="M102.519 140.915H142.115V142.095H102.519V140.915ZM102.519 148.855H131.17V150.035H102.519V148.855ZM102.519 144.885H142.115V146.065H102.519V144.885Z" fill="#D9DADA"/>
<path d="M91.1447 126.766H100.151V127.947H91.1447V126.766ZM91.1447 130.313H97.6617V131.493H91.1447V130.313Z" fill="#D9DADA"/>
<path d="M116.469 126.766H125.475V127.947H116.469V126.766ZM116.469 130.313H122.986V131.493H116.469V130.313Z" fill="#D9DADA"/>
<path d="M91.1447 104.445H100.151V105.625H91.1447V104.445ZM91.1447 107.992H97.6617V109.172H91.1447V107.992Z" fill="#D9DADA"/>
<path d="M116.469 104.445H125.475V105.625H116.469V104.445ZM116.469 107.992H122.986V109.172H116.469V107.992Z" fill="#D9DADA"/>
<path d="M89.4635 90.0566C93.8786 90.0566 97.4578 86.4774 97.4578 82.0622C97.4578 77.6471 93.8786 74.0679 89.4635 74.0679C85.0483 74.0679 81.4691 77.6471 81.4691 82.0622C81.4691 86.4774 85.0483 90.0566 89.4635 90.0566Z" fill="#FF5B62"/>
<path d="M87.917 76.3619H91.0133V80.5145H95.1659V83.6108H91.0133V87.7634H87.917V83.6108H83.7644V80.5145H87.917V76.3619Z" fill="#FEFEFE"/>
<path d="M108.491 106.465C108.359 106.331 108.361 106.116 108.495 105.984C108.629 105.852 108.845 105.853 108.977 105.987L110.138 107.172L113.284 103.764C113.412 103.625 113.627 103.616 113.766 103.744C113.905 103.871 113.913 104.087 113.786 104.226L110.398 107.897L110.386 107.909C110.252 108.041 110.037 108.04 109.904 107.906L108.492 106.465H108.491Z" fill="#0EBE7F"/>
<path d="M85.4211 106.465C85.2893 106.331 85.2907 106.116 85.4255 105.984C85.5596 105.852 85.775 105.854 85.9068 105.988L87.0684 107.172L90.2144 103.764C90.3418 103.625 90.5575 103.616 90.6965 103.744C90.8349 103.871 90.8435 104.087 90.7166 104.226L87.3277 107.897L87.3161 107.91C87.182 108.041 86.9667 108.04 86.834 107.906L85.4217 106.466H85.4211V106.465Z" fill="#0EBE7F"/>
<path d="M85.9148 127.112C85.8017 126.999 85.8017 126.815 85.9148 126.702C86.0279 126.589 86.2124 126.589 86.3255 126.702L89.5897 129.966C89.7028 130.079 89.7028 130.264 89.5897 130.377C89.4767 130.49 89.2922 130.49 89.1791 130.377L85.9148 127.112Z" fill="#FF5B62"/>
<path d="M89.5897 127.112C89.7028 126.999 89.7028 126.815 89.5897 126.702C89.4767 126.589 89.2922 126.589 89.1791 126.702L85.9148 129.966C85.8017 130.079 85.8017 130.264 85.9148 130.377C86.0279 130.49 86.2124 130.49 86.3255 130.377L89.5897 127.112Z" fill="#FF5B62"/>
<path d="M109.742 126.844C109.592 126.695 109.592 126.453 109.742 126.304C109.891 126.155 110.133 126.155 110.281 126.304L114.574 130.597C114.723 130.747 114.723 130.989 114.574 131.137C114.425 131.286 114.183 131.286 114.034 131.137L109.742 126.844Z" fill="#FF5B62"/>
<path d="M114.574 126.844C114.723 126.695 114.723 126.453 114.574 126.304C114.425 126.155 114.183 126.155 114.034 126.304L109.742 130.597C109.592 130.747 109.592 130.989 109.742 131.137C109.891 131.286 110.133 131.286 110.281 131.137L114.574 126.844Z" fill="#FF5B62"/>
</svg>
