<svg width="28" height="28" viewBox="0 0 28 28" fill="none" xmlns="http://www.w3.org/2000/svg">
<path fill-rule="evenodd" clip-rule="evenodd" d="M5.73334 4.59113H21.7867C22.42 4.59113 22.9333 5.105 22.9333 5.73891V21.8079C22.9333 22.4418 22.42 22.9557 21.7867 22.9557H5.73334C5.10005 22.9557 4.58667 22.4418 4.58667 21.8079V5.73891C4.58667 5.10501 5.10004 4.59113 5.73334 4.59113ZM2.29333 5.73891C2.29333 3.83721 3.83348 2.29556 5.73334 2.29556H21.7867C23.6866 2.29556 25.2267 3.83721 25.2267 5.73891V21.8079C25.2267 23.7096 23.6866 25.2512 21.7867 25.2512H5.73334C3.83348 25.2512 2.29333 23.7096 2.29333 21.8079V5.73891Z" fill="white"/>
<path fill-rule="evenodd" clip-rule="evenodd" d="M13.7599 13.7734C10.5935 13.7734 8.02661 10.6901 8.02661 6.8867H10.3199C10.3199 9.83198 12.2338 11.4778 13.7599 11.4778C15.286 11.4778 17.1999 9.83198 17.1999 6.8867H19.4933C19.4933 10.6901 16.9264 13.7734 13.7599 13.7734Z" fill="white" fill-opacity="0.97"/>
</svg>
