<svg width="17" height="21" viewBox="0 0 17 21" fill="none" xmlns="http://www.w3.org/2000/svg">
<path d="M4.60123 2.63765L7.66167 0.79873L7.35517 0.288637C7.18601 0.00712934 6.82028 -0.0842336 6.53862 0.0850437L4.49828 1.31097C4.21674 1.48012 4.12545 1.84585 4.29469 2.12752L4.60123 2.63765Z" fill="white"/>
<path d="M16.9137 13.8879C16.7431 13.607 16.377 13.5173 16.0961 13.6879L12.7752 15.7052C12.9331 16.0841 13.0358 16.4907 13.0743 16.916L16.7138 14.7051C16.995 14.5345 17.0843 14.1687 16.9137 13.8879Z" fill="white"/>
<path d="M13.6866 19.1215H11.9014V17.2966C11.9014 15.656 10.5667 14.3213 8.92606 14.3213C7.28545 14.3213 5.95071 15.656 5.95071 17.2966V19.1215H4.1655C3.83687 19.1215 3.57043 19.3879 3.57043 19.7166C3.57043 20.0452 3.83687 20.3117 4.1655 20.3117H13.6866C14.0152 20.3117 14.2817 20.0452 14.2817 19.7166C14.2817 19.3879 14.0152 19.1215 13.6866 19.1215ZM8.92606 17.8917C8.59742 17.8917 8.33099 17.6253 8.33099 17.2966C8.33099 16.968 8.59742 16.7016 8.92606 16.7016C9.25469 16.7016 9.52113 16.968 9.52113 17.2966C9.52113 17.6253 9.25469 17.8917 8.92606 17.8917Z" fill="white"/>
<path d="M4.50123 4.78069L5.12899 5.82543L6.39823 5.05795C7.90276 4.14825 9.84245 4.6552 10.7352 6.11447C11.654 7.61655 11.1724 9.57607 9.66163 10.4808L8.38544 11.2451L8.79203 11.9218C8.96199 12.2046 9.3293 12.2945 9.61033 12.1243C9.6291 12.113 9.82829 11.9933 10.129 11.8126L11.042 13.332C11.2115 13.6142 11.5777 13.7044 11.8585 13.5356L13.8988 12.3097C14.1805 12.1404 14.2717 11.7749 14.1024 11.4931L13.1895 9.9737C13.4941 9.79069 13.6892 9.67346 13.6892 9.67346C13.9709 9.50419 14.062 9.13862 13.8928 8.85691C13.8786 8.83323 9.59807 1.70814 9.58244 1.68541C9.40432 1.42612 9.05513 1.35027 8.78549 1.51233L4.70482 3.96413C4.42311 4.13341 4.33195 4.49898 4.50123 4.78069Z" fill="white"/>
<path d="M4.76055 17.2967C4.76055 16.1322 5.24109 15.078 6.01401 14.3214H5.35562C4.37126 14.3214 3.57042 13.5205 3.57042 12.5362C3.57042 11.5518 4.37126 10.751 5.35539 10.751C5.35566 10.751 6.72865 10.7516 6.72857 10.7516C6.83627 10.7515 6.94192 10.7223 7.03431 10.667L9.04989 9.45988C9.9924 8.89543 10.293 7.67284 9.71974 6.73569C9.15447 5.81171 7.94056 5.51611 7.0138 6.07647L5.1848 7.18247C2.31042 7.27272 0 9.63963 0 12.5362C0 15.2881 2.08647 17.5616 4.76055 17.8586V17.2967Z" fill="white"/>
</svg>
