<svg width="52" height="37" viewBox="0 0 52 37" fill="none" xmlns="http://www.w3.org/2000/svg">
<path d="M31.3594 8.80355H20.6118V28.1964H31.3594V8.80355Z" fill="#FF5F00"/>
<path d="M21.2943 18.5C21.2926 16.6323 21.7141 14.7887 22.5269 13.1088C23.3397 11.4289 24.5225 9.95665 25.9857 8.80356C24.1737 7.37345 21.9976 6.48409 19.706 6.23713C17.4144 5.99016 15.0999 6.39555 13.0269 7.40697C10.954 8.41839 9.20624 9.99503 7.98349 11.9567C6.76073 13.9183 6.1123 16.1858 6.1123 18.5C6.1123 20.8142 6.76073 23.0817 7.98349 25.0433C9.20624 27.005 10.954 28.5816 13.0269 29.593C15.0999 30.6045 17.4144 31.0098 19.706 30.7629C21.9976 30.5159 24.1737 29.6266 25.9857 28.1964C24.5225 27.0433 23.3397 25.5711 22.5269 23.8912C21.7142 22.2113 21.2927 20.3677 21.2943 18.5Z" fill="#EB001B"/>
<path d="M45.8584 18.5C45.8585 20.8142 45.2101 23.0816 43.9874 25.0433C42.7647 27.0049 41.017 28.5816 38.9441 29.593C36.8712 30.6044 34.5567 31.0098 32.2652 30.7629C29.9736 30.5159 27.7975 29.6266 25.9856 28.1964C27.4475 27.0422 28.6294 25.5697 29.442 23.8901C30.2547 22.2104 30.6769 20.3674 30.6769 18.5C30.6769 16.6326 30.2547 14.7896 29.442 13.1099C28.6294 11.4303 27.4475 9.95781 25.9856 8.80355C27.7975 7.37345 29.9736 6.48409 32.2652 6.23712C34.5567 5.99016 36.8712 6.39557 38.9441 7.407C41.017 8.41843 42.7647 9.99507 43.9874 11.9567C45.2101 13.9184 45.8585 16.1858 45.8584 18.5Z" fill="#F79E1B"/>
<path d="M44.6866 26.1424V25.7454H44.846V25.6645H44.4399V25.7454H44.5994V26.1424H44.6866ZM45.4749 26.1424V25.6637H45.3504L45.2073 25.993L45.0641 25.6637H44.9395V26.1424H45.0274V25.7813L45.1617 26.0927H45.2528L45.3871 25.7806V26.1424H45.4749Z" fill="#F79E1B"/>
</svg>
