<svg width="30" height="28" viewBox="0 0 30 28" fill="none" xmlns="http://www.w3.org/2000/svg">
<path fill-rule="evenodd" clip-rule="evenodd" d="M20.261 7.7239C20.728 7.27567 21.4852 7.27567 21.9522 7.7239C22.4191 8.17213 22.4191 8.89887 21.9522 9.34711L10.1143 20.7095C9.64726 21.1579 8.89011 21.1579 8.42313 20.7095C7.95613 20.2613 7.95613 19.5347 8.42313 19.0863L20.261 7.7239ZM12.6509 11.7819C11.717 12.6784 10.2027 12.6784 9.26868 11.7819C8.33471 10.8855 8.33471 9.43199 9.26868 8.53551C10.2027 7.63903 11.717 7.63903 12.6509 8.53551C13.585 9.43199 13.585 10.8855 12.6509 11.7819ZM21.1066 19.8979C20.1727 20.7945 18.6583 20.7945 17.7244 19.8979C16.7903 19.0015 16.7903 17.5481 17.7244 16.6515C18.6583 15.7551 20.1727 15.7551 21.1066 16.6515C22.0405 17.5481 22.0405 19.0015 21.1066 19.8979Z" fill="#171717"/>
</svg>
