<svg width="29" height="28" viewBox="0 0 29 28" fill="none" xmlns="http://www.w3.org/2000/svg">
<path fill-rule="evenodd" clip-rule="evenodd" d="M6.96867 2.28568H1.34436V4.58124H5.12202L8.37196 19.1324H8.38698V19.5024H23.646V19.2177L26.2203 8.12898L26.6166 6.87681H7.98227L7.31281 3.8794L6.96867 2.28568ZM23.6306 9.17237H8.49497L10.2894 17.2069H21.7654L23.6306 9.17237ZM11.9083 25.2413C13.2048 25.2413 14.2558 24.2136 14.2558 22.9458C14.2558 21.6779 13.2048 20.6502 11.9083 20.6502C10.6118 20.6502 9.56075 21.6779 9.56075 22.9458C9.56075 24.2136 10.6118 25.2413 11.9083 25.2413ZM20.1247 25.2413C21.4212 25.2413 22.4722 24.2136 22.4722 22.9458C22.4722 21.6779 21.4212 20.6502 20.1247 20.6502C18.8281 20.6502 17.7771 21.6779 17.7771 22.9458C17.7771 24.2136 18.8281 25.2413 20.1247 25.2413Z" fill="#0EBE7F"/>
</svg>
